<?xml version="1.0" encoding="UTF-8"?> <!-- Generator: Adobe Illustrator 21.1.0, SVG Export Plug-In . SVG Version: 6.00 Build 0) --> <svg xmlns="http://www.w3.org/2000/svg" xmlns:xlink="http://www.w3.org/1999/xlink" id="Layer_1" x="0px" y="0px" viewBox="0 0 1287.5 704" style="enable-background:new 0 0 1287.5 704;" xml:space="preserve"> <style type="text/css"> .st0{fill:#412020;} </style> <g> <g> <g> <path class="st0" d="M943.1,282.1c-1.6-3.8-5.4-6.3-9.6-6.3c-4.2,0-7.9,2.5-9.6,6.3l-28.3,65.5c-2.2,5.3,0.2,11.5,5.5,13.7 c5.3,2.2,11.4-0.2,13.7-5.5l18.6-43.1l45.7,106.5c1.7,3.9,5.6,6.3,9.6,6.3c1.4,0,2.8-0.3,4.1-0.8c5.3-2.3,7.8-8.4,5.5-13.7 L943.1,282.1z"></path> <path class="st0" d="M940.6,373.5h-49.1c-4.2,0-7.9,2.5-9.6,6.3L868.6,411c-2.3,5.3,0.2,11.4,5.5,13.7c1.3,0.6,2.7,0.8,4.1,0.8 c4,0,7.9-2.4,9.6-6.3l10.6-24.8h42.1c5.8,0,10.5-4.7,10.5-10.4C951.1,378.2,946.4,373.5,940.6,373.5"></path> <path class="st0" d="M401.8,283c-1.9-3.2-5.3-5.2-9.1-5.2h-70.1c-5.8,0-10.4,4.7-10.4,10.4c0,5.8,4.7,10.5,10.4,10.5h52 L310,409.8c-2.9,5-1.2,11.4,3.8,14.2c1.6,1,3.5,1.4,5.3,1.4c3.6,0,7.1-1.8,9-5.2l73.7-126.9C403.6,290.2,403.6,286.2,401.8,283"></path> <path class="st0" d="M392.7,404.7h-36.4c-5.7,0-10.4,4.6-10.4,10.4c0,5.8,4.7,10.4,10.4,10.4h36.4c5.8,0,10.5-4.7,10.5-10.4 C403.2,409.3,398.5,404.7,392.7,404.7"></path> <path class="st0" d="M785,277.5c-5.8,0-10.4,4.7-10.4,10.5v127.1c0,5.8,4.7,10.4,10.4,10.4c5.8,0,10.4-4.7,10.4-10.4V288 C795.5,282.2,790.8,277.5,785,277.5"></path> <path class="st0" d="M752.7,340.2h-57.2V288c0-5.8-4.7-10.5-10.4-10.5c-5.8,0-10.5,4.7-10.5,10.5v127.1c0,5.8,4.7,10.4,10.5,10.4 c5.8,0,10.4-4.7,10.4-10.4v-54h57.2c5.8,0,10.4-4.7,10.4-10.4C763.2,344.8,758.5,340.2,752.7,340.2"></path> <path class="st0" d="M1178.4,323.3c0-25.1-20.6-45.5-45.8-45.5l-50.1-0.3h0c-2.8,0-5.4,1.1-7.4,3.1c-2,1.9-3.1,4.6-3.1,7.4v127.1 c0,5.8,4.7,10.4,10.5,10.4c5.7,0,10.4-4.7,10.4-10.4V298.5l39.7,0.2c13.8,0,25,11,25,24.6c0,13.5-11.2,24.5-25,24.5h-17.8 c-5.8,0-10.4,4.7-10.4,10.5c0,5.8,4.7,10.4,10.4,10.4h17.8C1157.8,368.7,1178.4,348.3,1178.4,323.3"></path> <path class="st0" d="M1157.3,384.3c-2.7-5.1-9-7.2-14.1-4.5c-5.1,2.6-7.1,8.9-4.5,14.1l13.5,26c1.9,3.6,5.5,5.7,9.3,5.7 c1.6,0,3.2-0.4,4.8-1.2c5.1-2.6,7.1-8.9,4.5-14.1L1157.3,384.3z"></path> <path class="st0" d="M545.6,282.1c-1.6-3.8-5.4-6.3-9.6-6.3c-4.2,0-7.9,2.5-9.6,6.3l-28.3,65.5c-2.3,5.3,0.2,11.5,5.5,13.7 c5.3,2.2,11.4-0.2,13.7-5.5l18.7-43.1l45.7,106.5c1.7,3.9,5.6,6.3,9.6,6.3c1.3,0,2.8-0.3,4.1-0.8c5.3-2.3,7.8-8.4,5.5-13.7 L545.6,282.1z"></path> <path class="st0" d="M543.1,373.5h-49.1c-4.1,0-7.9,2.5-9.6,6.3L471.2,411c-2.2,5.3,0.2,11.4,5.5,13.7c1.3,0.6,2.7,0.8,4.1,0.8 c4,0,7.9-2.4,9.6-6.3l10.6-24.8h42.2c5.8,0,10.5-4.7,10.5-10.4C553.6,378.2,548.9,373.5,543.1,373.5"></path> <path class="st0" d="M184.4,282.1c-1.6-3.8-5.4-6.3-9.6-6.3c-4.2,0-7.9,2.5-9.6,6.3l-28.3,65.5c-2.2,5.3,0.2,11.5,5.5,13.7 c5.3,2.2,11.4-0.2,13.7-5.5l18.6-43.1l45.7,106.5c1.7,3.9,5.6,6.3,9.6,6.3c1.4,0,2.8-0.3,4.1-0.8c5.3-2.3,7.8-8.4,5.5-13.7 L184.4,282.1z"></path> <path class="st0" d="M181.9,373.5h-49c-4.2,0-7.9,2.5-9.6,6.3L109.9,411c-2.3,5.3,0.2,11.4,5.5,13.7c1.3,0.6,2.8,0.8,4.1,0.8 c4,0,7.9-2.4,9.6-6.3l10.7-24.8h42.1c5.8,0,10.5-4.7,10.5-10.4C192.4,378.2,187.7,373.5,181.9,373.5"></path> </g> </g> <g> <g> <path class="st0" d="M460.6,174.4c0.6,1,0.4,1.6-0.6,2.2l-4.9,2.7c-1,0.6-1.7,0.4-2.2-0.7l-2.6-4.7c-0.6-1-0.4-1.7,0.7-2.2 l4.9-2.7c1-0.6,1.6-0.4,2.2,0.7L460.6,174.4z"></path> <path class="st0" d="M518.9,155.2c1.9,5.2,0.4,11.3-10.7,15.5c-11.2,4.2-16.3,0.5-18.3-4.6l-8.5-22.9 c-1.9-5.2-0.4-11.3,10.7-15.5s16.3-0.5,18.3,4.6l1.1,3c0.4,1.1,0.2,1.7-0.8,2.1l-5.1,1.9c-1.1,0.4-1.7,0.1-2.1-1l-0.6-1.5 c-1.2-3.1-3.9-3.8-8-2.3c-4.1,1.5-5.7,3.9-4.5,7l7.4,19.9c1.2,3.1,3.8,3.8,8,2.3c4.1-1.5,5.7-3.9,4.6-7l-0.9-2.3 c-0.4-1.1-0.1-1.7,1-2.1l5.1-1.9c1-0.4,1.6-0.1,2,1L518.9,155.2z"></path> <path class="st0" d="M541.4,123.6c-1.1-5.4,1.9-11.3,13.6-13.7c11.7-2.4,16.7,2,17.8,7.4l4.8,23.9c1.1,5.4-1.9,11.3-13.6,13.7 c-11.7,2.3-16.7-2-17.8-7.4L541.4,123.6z M564.4,120.6c-0.6-3.2-3.6-4.3-8-3.5c-4.3,0.9-6.6,3-5.9,6.2l4.2,20.8 c0.7,3.2,3.6,4.3,7.9,3.5c4.3-0.9,6.7-3,6-6.2L564.4,120.6z"></path> <path class="st0" d="M631.8,101.7c1.1-0.1,1.7,0.3,1.7,1.5l0.2,4.1c0.1,1.2-0.4,1.7-1.6,1.7l-16.8,0.9l0.6,10.7l15.7-0.9 c1.2-0.1,1.7,0.3,1.7,1.5l0.2,4.2c0.1,1.2-0.4,1.7-1.6,1.7l-15.7,0.9l1,17.6c0.1,1.2-0.3,1.7-1.5,1.8l-5.7,0.3 c-1.2,0.1-1.6-0.4-1.7-1.6l-2.2-41.4c-0.1-1.2,0.3-1.7,1.5-1.8L631.8,101.7z"></path> <path class="st0" d="M692.5,104.1c1.1,0.1,1.6,0.5,1.5,1.7l-0.3,4.1c-0.1,1.2-0.7,1.6-1.8,1.5l-16.8-1.3l-0.8,10.6l15.6,1.2 c1.2,0.1,1.6,0.5,1.5,1.7l-0.3,4.2c-0.1,1.2-0.6,1.6-1.8,1.5l-15.6-1.2l-1.4,17.6c-0.1,1.2-0.5,1.7-1.7,1.6L665,147 c-1.2-0.1-1.5-0.6-1.4-1.8l3.2-41.3c0.1-1.2,0.5-1.7,1.7-1.6L692.5,104.1z"></path> <path class="st0" d="M719.4,153.4c-1.2-0.3-1.4-0.9-1.2-2l8.8-40.5c0.3-1.2,0.8-1.6,1.9-1.3l22,4.8c1.1,0.2,1.5,0.7,1.3,1.9 l-0.9,4.1c-0.3,1.2-0.9,1.5-2,1.3l-14.9-3.2l-2.3,10.4l13.8,3c1.2,0.3,1.6,0.8,1.3,1.9l-0.8,3.9c-0.2,1.1-0.9,1.4-2,1.2l-13.8-3 l-2.6,12l15.5,3.4c1.2,0.3,1.5,0.7,1.3,1.9l-0.9,4.1c-0.3,1.2-0.8,1.5-2,1.3L719.4,153.4z"></path> <path class="st0" d="M771.8,167.2c-1.1-0.4-1.3-1.1-0.9-2.2l14.7-38.7c0.4-1.1,1-1.5,2.1-1l21.1,8c1,0.4,1.4,1,1,2.1l-1.5,3.9 c-0.4,1.1-1.1,1.4-2.1,1l-14.2-5.4l-3.8,10l13.2,5c1.1,0.4,1.5,1,1,2.1l-1.4,3.7c-0.4,1-1.1,1.3-2.2,0.9l-13.2-5l-4.3,11.5 l14.9,5.6c1.1,0.4,1.4,1,1,2.1l-1.5,3.9c-0.4,1.1-1,1.4-2.1,1L771.8,167.2z"></path> <path class="st0" d="M834.7,178.6c-0.6,1-1.1,1.3-2.2,0.7l-4.9-2.7c-1-0.6-1.2-1.2-0.7-2.2l2.6-4.7c0.6-1,1.2-1.2,2.2-0.7 l4.9,2.7c1,0.6,1.2,1.2,0.6,2.2L834.7,178.6z"></path> </g> <g> <g> <path class="st0" d="M481.9,560.8c-2.4,5-7.8,8.2-18.6,3.1c-10.8-5.1-11.8-11.3-9.4-16.3l10.4-22.1c2.4-5,7.8-8.2,18.6-3.1 s11.8,11.3,9.4,16.3l-1.3,2.9c-0.5,1.1-1.1,1.3-2.1,0.8l-4.9-2.3c-1.1-0.5-1.3-1.1-0.8-2.2l0.7-1.4c1.4-3,0-5.5-4-7.3 c-4-1.9-6.7-1.3-8.1,1.6l-9,19.2c-1.4,3-0.1,5.4,3.9,7.3c4,1.9,6.8,1.4,8.2-1.6l1.1-2.3c0.5-1.1,1.1-1.3,2.2-0.8l5,2.3 c1,0.5,1.2,1.1,0.7,2.1L481.9,560.8z"></path> <path class="st0" d="M515.5,547.4c1.5-5.3,6.9-9.2,18.4-5.9c11.5,3.3,14,9.4,12.4,14.8l-6.8,23.5c-1.5,5.3-6.9,9.2-18.4,5.9 c-11.5-3.3-14-9.5-12.4-14.8L515.5,547.4z M537.3,555.3c0.9-3.2-1.2-5.5-5.5-6.7c-4.2-1.2-7.2-0.4-8.2,2.8l-5.9,20.4 c-0.9,3.2,1.2,5.5,5.4,6.7c4.2,1.2,7.3,0.4,8.2-2.8L537.3,555.3z"></path> <path class="st0" d="M608.3,599.5c-0.1,1.1-0.6,1.6-1.8,1.4l-5.4-0.7c-1.2-0.1-1.5-0.7-1.4-1.8l3.1-24.9c-0.1,0.2-1.8,4-2.6,5.7 l-6.5,11.6c-0.6,1-1.2,1.5-2.4,1.4l-4.6-0.6c-1.1-0.1-1.6-0.9-1.9-1.9l-3.9-13.8c-0.5-1.5-0.9-4.6-0.9-5l-3,24.7 c-0.1,1.1-0.6,1.6-1.8,1.4l-5.2-0.6c-1.2-0.1-1.5-0.7-1.4-1.8l5.1-41.2c0.1-1.1,0.6-1.6,1.8-1.4l5.2,0.6 c0.9,0.1,1.1,0.5,1.3,1.1l7.2,24.1c0.6,1.9,1.1,4.8,1.1,4.8s1.2-2.4,2.3-4.3l12.5-21.9c0.3-0.6,0.8-0.7,1.6-0.6l5.4,0.7 c1.2,0.1,1.5,0.7,1.4,1.8L608.3,599.5z"></path> <path class="st0" d="M649.2,586.2l0.3,14.2c0,1.2-0.4,1.7-1.5,1.8l-5.7,0.1c-1.2,0-1.6-0.5-1.6-1.7l-1-41.4 c0-1.2,0.4-1.7,1.5-1.7l13.8-0.3c11.9-0.3,16.1,4.8,16.2,10.4l0.2,7.4c0.1,5.5-3.8,10.8-15.7,11.1L649.2,586.2z M648.7,564.7 l0.3,14.2l6.5-0.2c4.4-0.1,7.1-1.8,7-5l-0.1-4.3c-0.1-3.3-2.8-4.9-7.2-4.8L648.7,564.7z"></path> <path class="st0" d="M708.6,552.2c1.2-0.2,1.8,0.3,2.3,1.3l18.4,39.2c0.5,1,0.2,1.6-0.9,1.8l-5.9,0.9c-1.1,0.2-1.7-0.4-2.1-1.3 l-3.5-7.6l-12.1,1.8l-1.1,8.3c-0.2,1.1-0.5,1.7-1.7,1.9l-5.3,0.8c-1.2,0.2-1.7-0.4-1.5-1.4l6-42.9c0.2-1.2,0.6-1.8,1.8-1.9 L708.6,552.2z M710.6,572.9c-1.3-2.5-3.5-10.7-3.7-11.6c0,0.9,0.1,9.2-0.2,12.1l-1.1,7.6l8.3-1.3L710.6,572.9z"></path> <path class="st0" d="M788.1,576.9c0.3,1.1,0.1,1.7-1,2l-5,1.5c-0.8,0.3-1.2,0.2-1.7-0.3L761.8,563c-2.6-2.3-4-4.2-4.1-4.3 l7.7,25.2c0.3,1.1,0.1,1.7-1,2l-5,1.5c-1.1,0.3-1.7,0-2-1.1l-12.1-39.7c-0.3-1.1-0.1-1.7,1-2l5-1.5c0.7-0.2,1.1-0.1,1.5,0.2 l19.3,17.9c1.6,1.5,3.5,3.8,3.5,3.8l-7.7-25.2c-0.3-1.1-0.1-1.7,1-2l5-1.5c1.1-0.3,1.7,0,2,1.1L788.1,576.9z"></path> <path class="st0" d="M817.7,535.5c0.8,0.8,2.4,2.4,2.6,2.6c-0.1-0.3-0.5-2.5-0.5-3.7l-0.4-16.6c-0.1-1,0-1.8,1-2.3l5.1-2.5 c1-0.5,1.8-0.2,1.8,1l0.4,28.9l6.9,13.9c0.5,1,0.4,1.7-0.7,2.2l-5.1,2.5c-1.1,0.5-1.7,0.3-2.2-0.7l-6.4-13l-23.2-18.8 c-0.9-0.7-0.7-1.5,0.3-2l5.9-2.9c1-0.5,1.7-0.1,2.5,0.6L817.7,535.5z"></path> </g> </g> </g> </g> </svg> 